<?xml version="1.0" standalone="no"?>
<!DOCTYPE svg PUBLIC "-//W3C//DTD SVG 20010904//EN"
 "http://www.w3.org/TR/2001/REC-SVG-20010904/DTD/svg10.dtd">
<svg version="1.0" xmlns="http://www.w3.org/2000/svg"
 width="736.000000pt" height="736.000000pt" viewBox="0 0 736.000000 736.000000"
 preserveAspectRatio="xMidYMid meet">
<metadata>
Created by potrace 1.14, written by Peter Selinger 2001-2017
</metadata>
<g transform="translate(0.000000,736.000000) scale(0.100000,-0.100000)"
fill="#000000" stroke="none">
<path d="M3649 6225 c-3 -2 -137 -6 -299 -9 -162 -4 -315 -8 -340 -11 -101
-11 -164 -21 -243 -41 -34 -8 -69 -16 -77 -16 -8 -1 -24 -7 -35 -14 -11 -8
-26 -14 -35 -14 -30 0 -229 -98 -313 -154 -102 -68 -235 -182 -297 -255 -25
-29 -53 -63 -64 -75 -33 -38 -146 -204 -146 -214 0 -6 -3 -12 -7 -14 -5 -1
-21 -30 -38 -63 -16 -33 -33 -62 -36 -65 -6 -5 -109 -251 -113 -270 -1 -3 -13
-41 -28 -85 -29 -89 -56 -184 -62 -225 -1 -8 -5 -24 -9 -35 -4 -11 -9 -36 -12
-55 -3 -19 -10 -60 -15 -90 -9 -49 -14 -90 -25 -195 -4 -33 -7 -122 -6 -145 1
-8 13 3 27 24 90 132 222 242 382 319 39 20 72 34 72 32 0 -2 15 2 33 10 40
16 176 51 234 60 23 3 57 9 75 12 39 8 819 11 833 3 13 -6 1755 -7 1755 0 0 3
78 5 173 6 185 1 459 11 492 18 11 2 42 7 69 10 27 4 53 9 56 11 4 3 25 7 47
9 22 3 52 10 67 15 14 6 26 8 26 5 0 -4 7 -1 15 6 8 7 15 10 15 6 0 -5 108 30
165 53 11 5 40 17 65 27 25 10 48 22 51 27 3 5 8 8 10 7 20 -8 247 125 369
217 178 134 348 301 487 478 53 67 204 285 197 285 -3 0 8 19 25 43 26 39 149
285 164 330 5 13 1 17 -21 18 -302 10 -3675 23 -3683 14z"/>
<path d="M2237 3954 c-1 -1 -47 -4 -102 -8 -55 -3 -116 -8 -135 -11 -19 -3
-53 -7 -75 -10 -22 -2 -51 -7 -65 -10 -14 -3 -46 -10 -71 -15 -241 -48 -504
-159 -719 -303 -456 -305 -799 -822 -961 -1447 -30 -115 -56 -235 -65 -300 -3
-19 -7 -46 -9 -60 -3 -14 -8 -50 -11 -80 -4 -30 -8 -68 -11 -85 -9 -63 -11
-505 -2 -500 5 4 9 13 9 21 0 8 5 14 10 14 6 0 10 6 10 13 0 7 16 36 35 64 19
29 35 57 35 62 0 5 3 11 8 13 4 2 29 37 56 78 157 240 381 489 562 623 27 20
54 41 60 46 67 55 276 164 384 200 154 50 155 50 820 51 344 1 645 3 670 6
249 25 511 125 765 292 161 106 290 214 465 391 181 183 288 310 444 530 85
120 266 413 259 420 -3 4 -2361 8 -2366 5z"/>
</g>
</svg>
